<?xml version="1.0" standalone="no"?>
<!DOCTYPE svg PUBLIC "-//W3C//DTD SVG 20010904//EN"
 "http://www.w3.org/TR/2001/REC-SVG-20010904/DTD/svg10.dtd">
<svg version="1.0" xmlns="http://www.w3.org/2000/svg"
 width="592.000000pt" height="592.000000pt" viewBox="0 0 592.000000 592.000000"
 preserveAspectRatio="xMidYMid meet">
<metadata>
Created by potrace 1.14, written by Peter Selinger 2001-2017
</metadata>
<g transform="translate(0.000000,592.000000) scale(0.100000,-0.100000)"
fill="#000000" stroke="none">
<path d="M0 2960 l0 -2660 2960 0 2960 0 0 2660 0 2660 -2960 0 -2960 0 0
-2660z m3925 1569 c-4 -11 -19 -50 -34 -87 l-28 -67 -876 -3 -877 -2 0 -460 0
-460 691 0 690 0 -6 -21 c-4 -11 -19 -50 -34 -87 l-28 -67 -746 -3 -747 -2 0
640 0 640 1001 0 1000 0 -6 -21z m-165 -407 c0 -5 -15 -46 -34 -93 l-34 -84
-576 -3 -575 -2 -3 -153 -3 -152 -92 -3 -93 -3 0 251 0 250 705 0 c388 0 705
-4 705 -8z m-443 -1116 c-3 -8 -20 -49 -37 -90 l-32 -76 -569 0 -569 0 0 -460
0 -460 877 -2 876 -3 28 -67 c15 -37 30 -76 34 -87 l6 -21 -1000 0 -1001 0 0
640 0 640 696 0 c598 0 695 -2 691 -14z m-779 -503 l3 -153 575 -2 576 -3 34
-84 c19 -47 34 -88 34 -93 0 -4 -317 -8 -705 -8 l-705 0 0 250 0 251 93 -3 92
-3 3 -152z"/>
</g>
</svg>
