<?xml version="1.0" encoding="UTF-8" standalone="no"?>
<!DOCTYPE svg PUBLIC "-//W3C//DTD SVG 1.1//EN" "http://www.w3.org/Graphics/SVG/1.1/DTD/svg11.dtd">
<svg xmlns="http://www.w3.org/2000/svg" version="1.1" viewBox="0.00 0.00 214.00 293.00">
<path fill="#ffffff" d="
  M 151.93 134.40
  L 5.72 134.19
  A 0.97 0.97 0.0 0 1 4.75 133.22
  L 4.75 7.02
  A 1.30 1.30 0.0 0 1 6.05 5.72
  L 204.31 5.82
  A 0.51 0.37 -76.4 0 1 204.59 6.50
  L 197.98 23.23
  Q 197.84 23.60 197.44 23.60
  L 23.22 23.80
  A 0.48 0.47 -90.0 0 0 22.75 24.28
  L 22.75 115.75
  A 0.50 0.50 0.0 0 0 23.25 116.25
  L 160.24 116.25
  A 0.50 0.50 0.0 0 1 160.70 116.93
  L 154.30 132.81
  A 2.56 2.56 0.0 0 1 151.93 134.40
  Z"
/>
<path fill="#ffffff" d="
  M 186.79 48.47
  Q 188.12 48.47 187.53 49.67
  Q 183.81 57.11 181.46 65.14
  Q 181.06 66.50 179.64 66.47
  C 141.61 65.72 104.05 66.77 66.12 66.16
  Q 65.25 66.14 65.25 67.02
  L 65.25 97.39
  Q 65.25 98.03 64.61 98.03
  L 47.96 97.88
  A 0.74 0.74 0.0 0 1 47.23 97.14
  L 47.29 49.32
  Q 47.30 48.18 48.43 48.18
  L 186.79 48.47
  Z"
/>
<path fill="#ffffff" d="
  M 23.25 269.25
  L 196.31 269.25
  A 2.21 2.20 -10.8 0 1 198.36 270.64
  L 204.87 286.93
  Q 205.10 287.50 204.48 287.50
  L 6.25 287.50
  Q 4.75 287.50 4.75 286.00
  L 4.75 160.78
  A 1.78 1.78 0.0 0 1 6.53 159.00
  L 142.89 158.99
  Q 143.77 158.99 143.44 159.82
  L 137.27 175.36
  Q 136.69 176.81 135.00 176.81
  L 23.46 176.83
  A 0.71 0.71 0.0 0 0 22.75 177.54
  L 22.75 268.75
  Q 22.75 269.25 23.25 269.25
  Z"
/>
<path fill="#ffffff" d="
  M 181.05 227.36
  L 187.61 243.73
  A 0.74 0.74 0.0 0 1 186.93 244.75
  L 47.99 244.75
  A 0.74 0.74 0.0 0 1 47.25 244.01
  L 47.25 195.99
  A 0.74 0.74 0.0 0 1 47.99 195.25
  L 64.51 195.25
  A 0.74 0.74 0.0 0 1 65.25 195.99
  L 65.25 226.00
  A 0.74 0.74 0.0 0 0 65.99 226.74
  L 180.36 226.90
  A 0.74 0.74 0.0 0 1 181.05 227.36
  Z"
/>
</svg>
